<?xml version="1.0" encoding="UTF-8" standalone="no"?>
<!-- Created with Inkscape (http://www.inkscape.org/) -->
<svg
   xmlns:dc="http://purl.org/dc/elements/1.1/"
   xmlns:cc="http://creativecommons.org/ns#"
   xmlns:rdf="http://www.w3.org/1999/02/22-rdf-syntax-ns#"
   xmlns:svg="http://www.w3.org/2000/svg"
   xmlns="http://www.w3.org/2000/svg"
   xmlns:xlink="http://www.w3.org/1999/xlink"
   xmlns:sodipodi="http://sodipodi.sourceforge.net/DTD/sodipodi-0.dtd"
   xmlns:inkscape="http://www.inkscape.org/namespaces/inkscape"
   width="48"
   height="48"
   id="svg3354"
   sodipodi:version="0.32"
   inkscape:version="0.46"
   version="1.0"
   sodipodi:docname="btn_decrement.svg"
   inkscape:output_extension="org.inkscape.output.svg.inkscape">
  <defs
     id="defs3356">
    <linearGradient
       id="linearGradient3900">
      <stop
         style="stop-color:#969696;stop-opacity:1;"
         offset="0"
         id="stop3902" />
      <stop
         style="stop-color:#6e6e6e;stop-opacity:1;"
         offset="1"
         id="stop3904" />
    </linearGradient>
    <linearGradient
       inkscape:collect="always"
       xlink:href="#linearGradient3900"
       id="linearGradient3906"
       x1="25"
       y1="5"
       x2="25"
       y2="43"
       gradientUnits="userSpaceOnUse" />
  </defs>
  <sodipodi:namedview
     id="base"
     pagecolor="#ffffff"
     bordercolor="#666666"
     borderopacity="1.0"
     gridtolerance="10000"
     guidetolerance="10"
     objecttolerance="10"
     inkscape:pageopacity="0.0"
     inkscape:pageshadow="2"
     inkscape:zoom="15.729167"
     inkscape:cx="23.897748"
     inkscape:cy="24.565506"
     inkscape:document-units="px"
     inkscape:current-layer="layer1"
     showgrid="true"
     inkscape:window-width="851"
     inkscape:window-height="969"
     inkscape:window-x="105"
     inkscape:window-y="17">
    <inkscape:grid
       type="xygrid"
       id="grid3364"
       units="px"
       visible="true"
       enabled="true"
       spacingx="1px"
       spacingy="1px" />
  </sodipodi:namedview>
  <metadata
     id="metadata3359">
    <rdf:RDF>
      <cc:Work
         rdf:about="">
        <dc:format>image/svg+xml</dc:format>
        <dc:type
           rdf:resource="http://purl.org/dc/dcmitype/StillImage" />
      </cc:Work>
    </rdf:RDF>
  </metadata>
  <g
     inkscape:label="Layer 1"
     inkscape:groupmode="layer"
     id="layer1">
    <path
       id="path3935"
       style="fill:#737373;fill-opacity:1;fill-rule:nonzero;stroke:none;stroke-width:8;stroke-linecap:round;stroke-linejoin:round;stroke-miterlimit:4;stroke-dashoffset:0;stroke-opacity:1"
       d="M 16.563256,22.788559 L 33.887349,40.112652 L 31,43 L 13.675908,25.675908 L 16.563256,22.788559 z M 16.563256,25.675908 C 15.766348,26.472816 14.472816,26.472816 13.675908,25.675908 C 12.878999,24.879 12.878999,23.585467 13.675908,22.788559 C 14.472816,21.991651 15.766348,21.991651 16.563256,22.788559 C 17.360164,23.585467 17.360164,24.879 16.563256,25.675908 z M 33.887349,43 C 33.090441,43.796909 31.796908,43.796909 31,43 C 30.203092,42.203092 30.203092,40.90956 31,40.112652 C 31.796908,39.315744 33.090441,39.315744 33.887349,40.112652 C 34.684257,40.90956 34.684257,42.203092 33.887349,43 z M 33.887349,8.351815 L 16.563256,25.675908 L 13.675908,22.788559 L 31,5.4644664 L 33.887349,8.351815 z M 31,8.351815 C 30.203092,7.554907 30.203092,6.2613747 31,5.4644664 C 31.796908,4.6675582 33.090441,4.6675582 33.887349,5.4644664 C 34.684257,6.2613747 34.684257,7.554907 33.887349,8.351815 C 33.090441,9.148724 31.796908,9.148724 31,8.351815 z M 13.675908,25.675908 C 12.878999,24.879 12.878999,23.585467 13.675908,22.788559 C 14.472816,21.991651 15.766348,21.991651 16.563256,22.788559 C 17.360164,23.585467 17.360164,24.879 16.563256,25.675908 C 15.766348,26.472816 14.472816,26.472816 13.675908,25.675908 z" />
    <path
       d="M 16.563256,21.788559 L 33.887349,39.112652 L 31,42 L 13.675908,24.675908 L 16.563256,21.788559 z M 16.563256,24.675908 C 15.766348,25.472816 14.472816,25.472816 13.675908,24.675908 C 12.878999,23.879 12.878999,22.585467 13.675908,21.788559 C 14.472816,20.991651 15.766348,20.991651 16.563256,21.788559 C 17.360164,22.585467 17.360164,23.879 16.563256,24.675908 z M 33.887349,42 C 33.090441,42.796909 31.796908,42.796909 31,42 C 30.203092,41.203092 30.203092,39.90956 31,39.112652 C 31.796908,38.315744 33.090441,38.315744 33.887349,39.112652 C 34.684257,39.90956 34.684257,41.203092 33.887349,42 z M 33.887349,7.351815 L 16.563256,24.675908 L 13.675908,21.788559 L 31,4.4644664 L 33.887349,7.351815 z M 31,7.351815 C 30.203092,6.554907 30.203092,5.2613747 31,4.4644664 C 31.796908,3.6675582 33.090441,3.6675582 33.887349,4.4644664 C 34.684257,5.2613747 34.684257,6.554907 33.887349,7.351815 C 33.090441,8.148724 31.796908,8.148724 31,7.351815 z M 13.675908,24.675908 C 12.878999,23.879 12.878999,22.585467 13.675908,21.788559 C 14.472816,20.991651 15.766348,20.991651 16.563256,21.788559 C 17.360164,22.585467 17.360164,23.879 16.563256,24.675908 C 15.766348,25.472816 14.472816,25.472816 13.675908,24.675908 z"
       style="fill:#3d3d3d;fill-opacity:1;fill-rule:nonzero;stroke:none;stroke-width:8;stroke-linecap:round;stroke-linejoin:round;stroke-miterlimit:4;stroke-dashoffset:0;stroke-opacity:1"
       id="path3931" />
    <path
       id="rect3887"
       style="fill:url(#linearGradient3906);fill-opacity:1;fill-rule:nonzero;stroke:none;stroke-width:8;stroke-linecap:round;stroke-linejoin:round;stroke-miterlimit:4;stroke-dashoffset:0;stroke-opacity:1"
       d="M 16.563256,22.436744 L 33.887349,39.760837 L 31,42.648185 L 13.675908,25.324093 L 16.563256,22.436744 z M 16.563256,25.324093 C 15.766348,26.121001 14.472816,26.121001 13.675908,25.324093 C 12.878999,24.527185 12.878999,23.233652 13.675908,22.436744 C 14.472816,21.639836 15.766348,21.639836 16.563256,22.436744 C 17.360164,23.233652 17.360164,24.527185 16.563256,25.324093 z M 33.887349,42.648185 C 33.090441,43.445094 31.796908,43.445094 31,42.648185 C 30.203092,41.851277 30.203092,40.557745 31,39.760837 C 31.796908,38.963929 33.090441,38.963929 33.887349,39.760837 C 34.684257,40.557745 34.684257,41.851277 33.887349,42.648185 z M 33.887349,8 L 16.563256,25.324093 L 13.675908,22.436744 L 31,5.1126514 L 33.887349,8 z M 31,8 C 30.203092,7.203092 30.203092,5.9095597 31,5.1126514 C 31.796908,4.3157432 33.090441,4.3157432 33.887349,5.1126514 C 34.684257,5.9095597 34.684257,7.203092 33.887349,8 C 33.090441,8.796909 31.796908,8.796909 31,8 z M 13.675908,25.324093 C 12.878999,24.527185 12.878999,23.233652 13.675908,22.436744 C 14.472816,21.639836 15.766348,21.639836 16.563256,22.436744 C 17.360164,23.233652 17.360164,24.527185 16.563256,25.324093 C 15.766348,26.121001 14.472816,26.121001 13.675908,25.324093 z" />
  </g>
</svg>
