<?xml version="1.0" encoding="UTF-8" standalone="no"?>
<!-- Created with Inkscape (http://www.inkscape.org/) -->
<svg
   xmlns:dc="http://purl.org/dc/elements/1.1/"
   xmlns:cc="http://creativecommons.org/ns#"
   xmlns:rdf="http://www.w3.org/1999/02/22-rdf-syntax-ns#"
   xmlns:svg="http://www.w3.org/2000/svg"
   xmlns="http://www.w3.org/2000/svg"
   xmlns:xlink="http://www.w3.org/1999/xlink"
   xmlns:sodipodi="http://sodipodi.sourceforge.net/DTD/sodipodi-0.dtd"
   xmlns:inkscape="http://www.inkscape.org/namespaces/inkscape"
   width="72"
   height="72"
   id="svg3374"
   sodipodi:version="0.32"
   inkscape:version="0.46"
   version="1.0"
   sodipodi:docname="ic_menu_qr.svg"
   inkscape:output_extension="org.inkscape.output.svg.inkscape"
   inkscape:export-filename="D:\work\android\MultiPicture\icon.png"
   inkscape:export-xdpi="90"
   inkscape:export-ydpi="90">
  <defs
     id="defs3376">
    <linearGradient
       id="linearGradient3202">
      <stop
         style="stop-color:#b2b2b2;stop-opacity:1;"
         offset="0"
         id="stop3204" />
      <stop
         style="stop-color:#8c8c8c;stop-opacity:1;"
         offset="1"
         id="stop3206" />
    </linearGradient>
    <linearGradient
       inkscape:collect="always"
       xlink:href="#linearGradient3202"
       id="linearGradient3208"
       x1="35"
       y1="7"
       x2="35"
       y2="65"
       gradientUnits="userSpaceOnUse" />
    <filter
       inkscape:collect="always"
       id="filter3212">
      <feGaussianBlur
         inkscape:collect="always"
         stdDeviation="1.305"
         id="feGaussianBlur3214" />
    </filter>
    <filter
       inkscape:collect="always"
       id="filter3221">
      <feGaussianBlur
         inkscape:collect="always"
         stdDeviation="0.87"
         id="feGaussianBlur3223" />
    </filter>
    <clipPath
       clipPathUnits="userSpaceOnUse"
       id="clipPath3241">
      <path
         style="fill:#000000;fill-opacity:1;display:inline"
         d="M 7,58 L 7,51 L 14,51 L 21,51 L 21,58 L 21,65 L 14,65 L 7,65 L 7,58 z M 19,58 L 19,53 L 14,53 L 9,53 L 9,58 L 9,63.000001 L 14,63.000001 L 19,63.000001 L 19,58 z M 11,58 L 11,55 L 14,55 L 17,55 L 17,58 L 17,61 L 14,61 L 11,61 L 11,58 z M 25,63.000001 L 25,61 L 24,61 L 23,61 L 23,58 L 23,55 L 24,55 L 25,55 L 25,54 L 25,53 L 26,53 L 27,53 L 27,52 L 27,51 L 25,51 L 23,51 L 23,49 L 23,47 L 22,47 L 21,47 L 21,48 L 21,49 L 19,49 L 17,49 L 17,48 L 17,47 L 19,47 L 21,47 L 21,46 L 21,45 L 18,45 L 15,45 L 15,46 L 15,47 L 14,47 L 13,47 L 13,46 L 13,45 L 12,45 L 11,45 L 11,44 L 11,43 L 10,43 L 9,43 L 9,46 L 9,49 L 8,49 L 7,49 L 7,44 L 7,39 L 8,39 L 9,39 L 9,37.999999 L 9,37 L 12,37 L 15,37 L 15,37.999999 L 15,39 L 16,39 L 17,39 L 17,40 L 17,41 L 18,41 L 19,41 L 19,40 L 19,39 L 20,39 L 21,39 L 21,37.999999 L 21,37 L 19,37 L 17,37 L 17,35 L 17,33 L 18,33 L 19,33 L 19,32 L 19,31 L 20,31 L 21,31 L 21,30 L 21,29 L 19,29 L 17,29 L 17,30 L 17,31 L 16,31 L 15,31 L 15,30 L 15,29 L 14,29 L 13,29 L 13,28 L 13,27 L 12,27 L 11,27 L 11,28 L 11,29 L 9,29 L 7,29 L 7,27 L 7,25 L 9,25 L 11,25 L 11,24 L 11,23 L 14,23 L 17,23 L 17,24 L 17,25 L 18,25 L 19,25 L 19,24 L 19,23 L 20,23 L 21,23 L 21,24 L 21,25 L 22,25 L 23,25 L 23,21 L 23,17 L 25,17 L 27,17 L 27,18 L 27,19 L 28,19 L 29,19 L 29,20 L 29,21 L 30,21 L 31,21 L 31,20 L 31,19 L 32,19 L 33,19 L 33,21 L 33,23 L 31,23 L 29,23 L 29,25 L 29,27 L 30,27 L 31,27 L 31,26 L 31,25 L 32,25 L 33,25 L 33,26 L 33,27 L 35,27 L 37,27 L 37,26 L 37,25 L 36,25 L 35,25 L 35,24 L 35,23 L 37,23 L 39,23 L 39,21 L 39,19 L 40,19 L 41,19 L 41,22 L 41,25 L 40,25 L 39,25 L 39,26 L 39,27 L 42,27 L 45,27 L 45,30 L 45,33 L 47,33 L 49,33 L 49,32 L 49,31 L 50,31 L 51,31 L 51,29 L 51,27 L 50,27 L 49,27 L 49,28 L 49,29 L 48,29 L 47,29 L 47,28 L 47,27 L 48,27 L 49,27 L 49,26 L 49,25 L 46,25 L 43,25 L 43,24 L 43,23 L 44,23 L 45,23 L 45,22 L 45,21 L 44,21 L 43,21 L 43,18 L 43,15 L 41,15 L 39,15 L 39,16 L 39,17 L 38,17 L 37,17 L 37,16 L 37,15 L 36,15 L 35,15 L 35,14 L 35,13 L 34.000001,13 L 33,13 L 33,12 L 33,11 L 32,11 L 31,11 L 31,12 L 31,13 L 30,13 L 29,13 L 29,14 L 29,15 L 27,15 L 25,15 L 25,14 L 25,13 L 24,13 L 23,13 L 23,10 L 23,7 L 24,7 L 25,7 L 25,8 L 25,9 L 27,9 L 29,9 L 29,8 L 29,7 L 37,7 L 45,7 L 45,8 L 45,9 L 46,9 L 47,9 L 47,8 L 47,7 L 48,7 L 49,7 L 49,8 L 49,9 L 48,9 L 47,9 L 47,10 L 47,11 L 48,11 L 49,11 L 49,12 L 49,13 L 48,13 L 47,13 L 47,15 L 47,17 L 48,17 L 49,17 L 49,20 L 49,23 L 52,23 L 55,23 L 55,24 L 55,25 L 57,25 L 59,25 L 59,24 L 59,23 L 62,23 L 65,23 L 65,25 L 65,27 L 64,27 L 63.000001,27 L 63.000001,26 L 63.000001,25 L 62,25 L 61,25 L 61,27 L 61,29 L 62,29 L 63.000001,29 L 63.000001,30 L 63.000001,31 L 64,31 L 65,31 L 65,33 L 65,35 L 64,35 L 63.000001,35 L 63.000001,37 L 63.000001,39 L 64,39 L 65,39 L 65,41 L 65,43 L 63.000001,43 L 61,43 L 61,44 L 61,45 L 63.000001,45 L 65,45 L 65,46 L 65,47 L 64,47 L 63.000001,47 L 63.000001,48 L 63.000001,49 L 64,49 L 65,49 L 65,50 L 65,51 L 63.000001,51 L 61,51 L 61,50 L 61,49 L 60,49 L 59,49 L 59,50 L 59,51 L 58,51 L 57,51 L 57,52 L 57,53 L 58,53 L 59,53 L 59,54 L 59,55 L 60,55 L 61,55 L 61,56 L 61,57 L 58,57 L 55,57 L 55,58 L 55,59 L 59,59 L 63.000001,59 L 63.000001,61 L 63.000001,63.000001 L 62,63.000001 L 61,63.000001 L 61,64 L 61,65 L 60,65 L 59,65 L 59,64 L 59,63.000001 L 58,63.000001 L 57,63.000001 L 57,64 L 57,65 L 56,65 L 55,65 L 55,62 L 55,59 L 54,59 L 53,59 L 53,60 L 53,61 L 52,61 L 51,61 L 51,62 L 51,63.000001 L 50,63.000001 L 49,63.000001 L 49,61 L 49,59 L 48,59 L 47,59 L 47,61 L 47,63.000001 L 44,63.000001 L 41,63.000001 L 41,64 L 41,65 L 39,65 L 37,65 L 37,64 L 37,63.000001 L 39,63.000001 L 41,63.000001 L 41,61 L 41,59 L 40,59 L 39,59 L 39,56 L 39,53 L 38,53 L 37,53 L 37,55 L 37,57 L 36,57 L 35,57 L 35,56 L 35,55 L 34.000001,55 L 33,55 L 33,57 L 33,59 L 35,59 L 37,59 L 37,60 L 37,61 L 36,61 L 35,61 L 35,63.000001 L 35,65 L 34.000001,65 L 33,65 L 33,63.000001 L 33,61 L 32,61 L 31,61 L 31,63.000001 L 31,65 L 28,65 L 25,65 L 25,63.000001 z M 61,62 L 61,61 L 60,61 L 59,61 L 59,62 L 59,63.000001 L 60,63.000001 L 61,63.000001 L 61,62 z M 29,60 L 29,59 L 30,59 L 31,59 L 31,56 L 31,53 L 29,53 L 27,53 L 27,55 L 27,57 L 28,57 L 29,57 L 29,58 L 29,59 L 27,59 L 25,59 L 25,60 L 25,61 L 27,61 L 29,61 L 29,60 z M 43,58 L 43,57 L 42,57 L 41,57 L 41,58 L 41,59 L 42,59 L 43,59 L 43,58 z M 53,58 L 53,57 L 51,57 L 49,57 L 49,58 L 49,59 L 51,59 L 53,59 L 53,58 z M 47,56 L 47,55 L 46,55 L 45,55 L 45,53 L 45,51 L 46,51 L 47,51 L 47,50 L 47,49 L 45,49 L 43,49 L 43,48 L 43,47 L 44,47 L 45,47 L 45,46 L 45,45 L 44,45 L 43,45 L 43,46 L 43,47 L 41,47 L 39,47 L 39,44 L 39,41 L 40,41 L 41,41 L 41,40 L 41,39 L 40,39 L 39,39 L 39,40 L 39,41 L 38,41 L 37,41 L 37,40 L 37,39 L 36,39 L 35,39 L 35,37 L 35,35 L 36,35 L 37,35 L 37,36 L 37,37 L 38,37 L 39,37 L 39,36 L 39,35 L 40,35 L 41,35 L 41,34 L 41,33 L 42,33 L 43,33 L 43,35 L 43,37 L 45,37 L 47,37 L 47,36 L 47,35 L 46,35 L 45,35 L 45,34 L 45,33 L 44,33 L 43,33 L 43,32 L 43,31 L 40,31 L 37,31 L 37,30 L 37,29 L 35,29 L 33,29 L 33,30 L 33,31 L 35,31 L 37,31 L 37,32 L 37,33 L 36,33 L 35,33 L 35,34 L 35,35 L 34.000001,35 L 33,35 L 33,34 L 33,33 L 32,33 L 31,33 L 31,31 L 31,29 L 30,29 L 29,29 L 29,28 L 29,27 L 28,27 L 27,27 L 27,23 L 27,19 L 26,19 L 25,19 L 25,23 L 25,27 L 24,27 L 23,27 L 23,29 L 23,31 L 22,31 L 21,31 L 21,32 L 21,33 L 20,33 L 19,33 L 19,34 L 19,35 L 21,35 L 23,35 L 23,34 L 23,33 L 27,33 L 31,33 L 31,34 L 31,35 L 28,35 L 25,35 L 25,36 L 25,37 L 29,37 L 33,37 L 33,37.999999 L 33,39 L 32,39 L 31,39 L 31,40 L 31,41 L 30,41 L 29,41 L 29,40 L 29,39 L 25,39 L 21,39 L 21,40 L 21,41 L 20,41 L 19,41 L 19,42 L 19,43 L 20,43 L 21,43 L 21,42 L 21,41 L 22,41 L 23,41 L 23,42 L 23,43 L 24,43 L 25,43 L 25,44 L 25,45 L 24,45 L 23,45 L 23,46 L 23,47 L 28,47 L 33,47 L 33,48 L 33,49 L 35,49 L 37,49 L 37,50 L 37,51 L 39,51 L 41,51 L 41,52 L 41,53 L 42,53 L 43,53 L 43,54 L 43,55 L 44,55 L 45,55 L 45,56 L 45,57 L 46,57 L 47,57 L 47,56 z M 37,48 L 37,47 L 38,47 L 39,47 L 39,48 L 39,49 L 38,49 L 37,49 L 37,48 z M 29,44 L 29,43 L 27,43 L 25,43 L 25,42 L 25,41 L 27,41 L 29,41 L 29,42 L 29,43 L 30,43 L 31,43 L 31,42 L 31,41 L 32,41 L 33,41 L 33,40 L 33,39 L 34.000001,39 L 35,39 L 35,41 L 35,43 L 36,43 L 37,43 L 37,44 L 37,45 L 35,45 L 33,45 L 33,44 L 33,43 L 32,43 L 31,43 L 31,44 L 31,45 L 30,45 L 29,45 L 29,44 z M 25,29 L 25,27 L 26,27 L 27,27 L 27,28 L 27,29 L 28,29 L 29,29 L 29,30 L 29,31 L 27,31 L 25,31 L 25,29 z M 55,52 L 55,49 L 52,49 L 49,49 L 49,52 L 49,55 L 52,55 L 55,55 L 55,52 z M 51,52 L 51,51 L 52,51 L 53,51 L 53,52 L 53,53 L 52,53 L 51,53 L 51,52 z M 35,52 L 35,51 L 34.000001,51 L 33,51 L 33,52 L 33,53 L 34.000001,53 L 35,53 L 35,52 z M 31,50 L 31,49 L 30,49 L 29,49 L 29,50 L 29,51 L 30,51 L 31,51 L 31,50 z M 51,45 L 51,43 L 52,43 L 53,43 L 53,45 L 53,47 L 57,47 L 61,47 L 61,46 L 61,45 L 59,45 L 57,45 L 57,44 L 57,43 L 55,43 L 53,43 L 53,42 L 53,41 L 52,41 L 51,41 L 51,40 L 51,39 L 49,39 L 47,39 L 47,40 L 47,41 L 46,41 L 45,41 L 45,42 L 45,43 L 46,43 L 47,43 L 47,44 L 47,45 L 48,45 L 49,45 L 49,46 L 49,47 L 50,47 L 51,47 L 51,45 z M 47,42 L 47,41 L 49,41 L 51,41 L 51,42 L 51,43 L 49,43 L 47,43 L 47,42 z M 15,44 L 15,43 L 14,43 L 13,43 L 13,44 L 13,45 L 14,45 L 15,45 L 15,44 z M 61,42 L 61,41 L 62,41 L 63.000001,41 L 63.000001,40 L 63.000001,39 L 62,39 L 61,39 L 61,34 L 61,29 L 60,29 L 59,29 L 59,32 L 59,35 L 57,35 L 55,35 L 55,34 L 55,33 L 56,33 L 57,33 L 57,32 L 57,31 L 54,31 L 51,31 L 51,32 L 51,33 L 52,33 L 53,33 L 53,36 L 53,39 L 54,39 L 55,39 L 55,40 L 55,41 L 56,41 L 57,41 L 57,39 L 57,37 L 58,37 L 59,37 L 59,37.999999 L 59,39 L 60,39 L 61,39 L 61,40 L 61,41 L 60,41 L 59,41 L 59,42 L 59,43 L 60,43 L 61,43 L 61,42 z M 11,40 L 11,39 L 10,39 L 9,39 L 9,40 L 9,41 L 10,41 L 11,41 L 11,40 z M 51,36 L 51,35 L 50,35 L 49,35 L 49,36 L 49,37 L 50,37 L 51,37 L 51,36 z M 55,27 L 55,25 L 53,25 L 51,25 L 51,26 L 51,27 L 52,27 L 53,27 L 53,28 L 53,29 L 54,29 L 55,29 L 55,27 z M 17,26 L 17,25 L 16,25 L 15,25 L 15,26 L 15,27 L 16,27 L 17,27 L 17,26 z M 21,26 L 21,25 L 20,25 L 19,25 L 19,26 L 19,27 L 20,27 L 21,27 L 21,26 z M 47,19 L 47,17 L 46,17 L 45,17 L 45,19 L 45,21 L 46,21 L 47,21 L 47,19 z M 45,14 L 45,13 L 44,13 L 43,13 L 43,12 L 43,11 L 44,11 L 45,11 L 45,10 L 45,9 L 44,9 L 43,9 L 43,10 L 43,11 L 42,11 L 41,11 L 41,10 L 41,9 L 37,9 L 33,9 L 33,10 L 33,11 L 36,11 L 39,11 L 39,12 L 39,13 L 41,13 L 43,13 L 43,14 L 43,15 L 44,15 L 45,15 L 45,14 z M 63.000001,54 L 63.000001,53 L 64,53 L 65,53 L 65,54 L 65,55 L 64,55 L 63.000001,55 L 63.000001,54 z M 7,33 L 7,31 L 10,31 L 13,31 L 13,32 L 13,33 L 14,33 L 15,33 L 15,34 L 15,35 L 14,35 L 13,35 L 13,34 L 13,33 L 11,33 L 9,33 L 9,34 L 9,35 L 8,35 L 7,35 L 7,33 z M 7,14 L 7,7 L 14,7 L 21,7 L 21,14 L 21,21 L 14,21 L 7,21 L 7,14 z M 19,14 L 19,9 L 14,9 L 9,9 L 9,14 L 9,19 L 14,19 L 19,19 L 19,14 z M 11,14 L 11,11 L 14,11 L 17,11 L 17,14 L 17,17 L 14,17 L 11,17 L 11,14 z M 35,20 L 35,19 L 36,19 L 37,19 L 37,20 L 37,21 L 36,21 L 35,21 L 35,20 z M 51,14 L 51,7 L 58,7 L 65,7 L 65,14 L 65,21 L 58,21 L 51,21 L 51,14 z M 63.000001,14 L 63.000001,9 L 58,9 L 53,9 L 53,14 L 53,19 L 58,19 L 63.000001,19 L 63.000001,14 z M 55,14 L 55,11 L 58,11 L 61,11 L 61,14 L 61,17 L 58,17 L 55,17 L 55,14 z M 31,16 L 31,15 L 32,15 L 33,15 L 33,16 L 33,17 L 32,17 L 31,17 L 31,16 z"
         id="path3243" />
    </clipPath>
  </defs>
  <sodipodi:namedview
     id="base"
     pagecolor="#ffffff"
     bordercolor="#666666"
     borderopacity="1.0"
     gridtolerance="10000"
     guidetolerance="10"
     objecttolerance="10"
     inkscape:pageopacity="0.0"
     inkscape:pageshadow="2"
     inkscape:zoom="10.333333"
     inkscape:cx="35.861101"
     inkscape:cy="36.471847"
     inkscape:document-units="px"
     inkscape:current-layer="layer3"
     showgrid="true"
     inkscape:window-width="929"
     inkscape:window-height="956"
     inkscape:window-x="83"
     inkscape:window-y="3">
    <inkscape:grid
       type="xygrid"
       id="grid3384"
       units="px"
       visible="true"
       enabled="true"
       spacingx="1px"
       spacingy="1px" />
  </sodipodi:namedview>
  <metadata
     id="metadata3379">
    <rdf:RDF>
      <cc:Work
         rdf:about="">
        <dc:format>image/svg+xml</dc:format>
        <dc:type
           rdf:resource="http://purl.org/dc/dcmitype/StillImage" />
      </cc:Work>
    </rdf:RDF>
  </metadata>
  <g
     inkscape:groupmode="layer"
     id="layer2"
     inkscape:label="glow"
     style="display:inline">
    <path
       style="opacity:0.55;fill:#ffffff;fill-opacity:1;display:inline;filter:url(#filter3212)"
       d="M 7,58 L 7,51 L 14,51 L 21,51 L 21,58 L 21,65 L 14,65 L 7,65 L 7,58 z M 19,58 L 19,53 L 14,53 L 9,53 L 9,58 L 9,63.000001 L 14,63.000001 L 19,63.000001 L 19,58 z M 11,58 L 11,55 L 14,55 L 17,55 L 17,58 L 17,61 L 14,61 L 11,61 L 11,58 z M 25,63.000001 L 25,61 L 24,61 L 23,61 L 23,58 L 23,55 L 24,55 L 25,55 L 25,54 L 25,53 L 26,53 L 27,53 L 27,52 L 27,51 L 25,51 L 23,51 L 23,49 L 23,47 L 22,47 L 21,47 L 21,48 L 21,49 L 19,49 L 17,49 L 17,48 L 17,47 L 19,47 L 21,47 L 21,46 L 21,45 L 18,45 L 15,45 L 15,46 L 15,47 L 14,47 L 13,47 L 13,46 L 13,45 L 12,45 L 11,45 L 11,44 L 11,43 L 10,43 L 9,43 L 9,46 L 9,49 L 8,49 L 7,49 L 7,44 L 7,39 L 8,39 L 9,39 L 9,37.999999 L 9,37 L 12,37 L 15,37 L 15,37.999999 L 15,39 L 16,39 L 17,39 L 17,40 L 17,41 L 18,41 L 19,41 L 19,40 L 19,39 L 20,39 L 21,39 L 21,37.999999 L 21,37 L 19,37 L 17,37 L 17,35 L 17,33 L 18,33 L 19,33 L 19,32 L 19,31 L 20,31 L 21,31 L 21,30 L 21,29 L 19,29 L 17,29 L 17,30 L 17,31 L 16,31 L 15,31 L 15,30 L 15,29 L 14,29 L 13,29 L 13,28 L 13,27 L 12,27 L 11,27 L 11,28 L 11,29 L 9,29 L 7,29 L 7,27 L 7,25 L 9,25 L 11,25 L 11,24 L 11,23 L 14,23 L 17,23 L 17,24 L 17,25 L 18,25 L 19,25 L 19,24 L 19,23 L 20,23 L 21,23 L 21,24 L 21,25 L 22,25 L 23,25 L 23,21 L 23,17 L 25,17 L 27,17 L 27,18 L 27,19 L 28,19 L 29,19 L 29,20 L 29,21 L 30,21 L 31,21 L 31,20 L 31,19 L 32,19 L 33,19 L 33,21 L 33,23 L 31,23 L 29,23 L 29,25 L 29,27 L 30,27 L 31,27 L 31,26 L 31,25 L 32,25 L 33,25 L 33,26 L 33,27 L 35,27 L 37,27 L 37,26 L 37,25 L 36,25 L 35,25 L 35,24 L 35,23 L 37,23 L 39,23 L 39,21 L 39,19 L 40,19 L 41,19 L 41,22 L 41,25 L 40,25 L 39,25 L 39,26 L 39,27 L 42,27 L 45,27 L 45,30 L 45,33 L 47,33 L 49,33 L 49,32 L 49,31 L 50,31 L 51,31 L 51,29 L 51,27 L 50,27 L 49,27 L 49,28 L 49,29 L 48,29 L 47,29 L 47,28 L 47,27 L 48,27 L 49,27 L 49,26 L 49,25 L 46,25 L 43,25 L 43,24 L 43,23 L 44,23 L 45,23 L 45,22 L 45,21 L 44,21 L 43,21 L 43,18 L 43,15 L 41,15 L 39,15 L 39,16 L 39,17 L 38,17 L 37,17 L 37,16 L 37,15 L 36,15 L 35,15 L 35,14 L 35,13 L 34.000001,13 L 33,13 L 33,12 L 33,11 L 32,11 L 31,11 L 31,12 L 31,13 L 30,13 L 29,13 L 29,14 L 29,15 L 27,15 L 25,15 L 25,14 L 25,13 L 24,13 L 23,13 L 23,10 L 23,7 L 24,7 L 25,7 L 25,8 L 25,9 L 27,9 L 29,9 L 29,8 L 29,7 L 37,7 L 45,7 L 45,8 L 45,9 L 46,9 L 47,9 L 47,8 L 47,7 L 48,7 L 49,7 L 49,8 L 49,9 L 48,9 L 47,9 L 47,10 L 47,11 L 48,11 L 49,11 L 49,12 L 49,13 L 48,13 L 47,13 L 47,15 L 47,17 L 48,17 L 49,17 L 49,20 L 49,23 L 52,23 L 55,23 L 55,24 L 55,25 L 57,25 L 59,25 L 59,24 L 59,23 L 62,23 L 65,23 L 65,25 L 65,27 L 64,27 L 63.000001,27 L 63.000001,26 L 63.000001,25 L 62,25 L 61,25 L 61,27 L 61,29 L 62,29 L 63.000001,29 L 63.000001,30 L 63.000001,31 L 64,31 L 65,31 L 65,33 L 65,35 L 64,35 L 63.000001,35 L 63.000001,37 L 63.000001,39 L 64,39 L 65,39 L 65,41 L 65,43 L 63.000001,43 L 61,43 L 61,44 L 61,45 L 63.000001,45 L 65,45 L 65,46 L 65,47 L 64,47 L 63.000001,47 L 63.000001,48 L 63.000001,49 L 64,49 L 65,49 L 65,50 L 65,51 L 63.000001,51 L 61,51 L 61,50 L 61,49 L 60,49 L 59,49 L 59,50 L 59,51 L 58,51 L 57,51 L 57,52 L 57,53 L 58,53 L 59,53 L 59,54 L 59,55 L 60,55 L 61,55 L 61,56 L 61,57 L 58,57 L 55,57 L 55,58 L 55,59 L 59,59 L 63.000001,59 L 63.000001,61 L 63.000001,63.000001 L 62,63.000001 L 61,63.000001 L 61,64 L 61,65 L 60,65 L 59,65 L 59,64 L 59,63.000001 L 58,63.000001 L 57,63.000001 L 57,64 L 57,65 L 56,65 L 55,65 L 55,62 L 55,59 L 54,59 L 53,59 L 53,60 L 53,61 L 52,61 L 51,61 L 51,62 L 51,63.000001 L 50,63.000001 L 49,63.000001 L 49,61 L 49,59 L 48,59 L 47,59 L 47,61 L 47,63.000001 L 44,63.000001 L 41,63.000001 L 41,64 L 41,65 L 39,65 L 37,65 L 37,64 L 37,63.000001 L 39,63.000001 L 41,63.000001 L 41,61 L 41,59 L 40,59 L 39,59 L 39,56 L 39,53 L 38,53 L 37,53 L 37,55 L 37,57 L 36,57 L 35,57 L 35,56 L 35,55 L 34.000001,55 L 33,55 L 33,57 L 33,59 L 35,59 L 37,59 L 37,60 L 37,61 L 36,61 L 35,61 L 35,63.000001 L 35,65 L 34.000001,65 L 33,65 L 33,63.000001 L 33,61 L 32,61 L 31,61 L 31,63.000001 L 31,65 L 28,65 L 25,65 L 25,63.000001 z M 61,62 L 61,61 L 60,61 L 59,61 L 59,62 L 59,63.000001 L 60,63.000001 L 61,63.000001 L 61,62 z M 29,60 L 29,59 L 30,59 L 31,59 L 31,56 L 31,53 L 29,53 L 27,53 L 27,55 L 27,57 L 28,57 L 29,57 L 29,58 L 29,59 L 27,59 L 25,59 L 25,60 L 25,61 L 27,61 L 29,61 L 29,60 z M 43,58 L 43,57 L 42,57 L 41,57 L 41,58 L 41,59 L 42,59 L 43,59 L 43,58 z M 53,58 L 53,57 L 51,57 L 49,57 L 49,58 L 49,59 L 51,59 L 53,59 L 53,58 z M 47,56 L 47,55 L 46,55 L 45,55 L 45,53 L 45,51 L 46,51 L 47,51 L 47,50 L 47,49 L 45,49 L 43,49 L 43,48 L 43,47 L 44,47 L 45,47 L 45,46 L 45,45 L 44,45 L 43,45 L 43,46 L 43,47 L 41,47 L 39,47 L 39,44 L 39,41 L 40,41 L 41,41 L 41,40 L 41,39 L 40,39 L 39,39 L 39,40 L 39,41 L 38,41 L 37,41 L 37,40 L 37,39 L 36,39 L 35,39 L 35,37 L 35,35 L 36,35 L 37,35 L 37,36 L 37,37 L 38,37 L 39,37 L 39,36 L 39,35 L 40,35 L 41,35 L 41,34 L 41,33 L 42,33 L 43,33 L 43,35 L 43,37 L 45,37 L 47,37 L 47,36 L 47,35 L 46,35 L 45,35 L 45,34 L 45,33 L 44,33 L 43,33 L 43,32 L 43,31 L 40,31 L 37,31 L 37,30 L 37,29 L 35,29 L 33,29 L 33,30 L 33,31 L 35,31 L 37,31 L 37,32 L 37,33 L 36,33 L 35,33 L 35,34 L 35,35 L 34.000001,35 L 33,35 L 33,34 L 33,33 L 32,33 L 31,33 L 31,31 L 31,29 L 30,29 L 29,29 L 29,28 L 29,27 L 28,27 L 27,27 L 27,23 L 27,19 L 26,19 L 25,19 L 25,23 L 25,27 L 24,27 L 23,27 L 23,29 L 23,31 L 22,31 L 21,31 L 21,32 L 21,33 L 20,33 L 19,33 L 19,34 L 19,35 L 21,35 L 23,35 L 23,34 L 23,33 L 27,33 L 31,33 L 31,34 L 31,35 L 28,35 L 25,35 L 25,36 L 25,37 L 29,37 L 33,37 L 33,37.999999 L 33,39 L 32,39 L 31,39 L 31,40 L 31,41 L 30,41 L 29,41 L 29,40 L 29,39 L 25,39 L 21,39 L 21,40 L 21,41 L 20,41 L 19,41 L 19,42 L 19,43 L 20,43 L 21,43 L 21,42 L 21,41 L 22,41 L 23,41 L 23,42 L 23,43 L 24,43 L 25,43 L 25,44 L 25,45 L 24,45 L 23,45 L 23,46 L 23,47 L 28,47 L 33,47 L 33,48 L 33,49 L 35,49 L 37,49 L 37,50 L 37,51 L 39,51 L 41,51 L 41,52 L 41,53 L 42,53 L 43,53 L 43,54 L 43,55 L 44,55 L 45,55 L 45,56 L 45,57 L 46,57 L 47,57 L 47,56 z M 37,48 L 37,47 L 38,47 L 39,47 L 39,48 L 39,49 L 38,49 L 37,49 L 37,48 z M 29,44 L 29,43 L 27,43 L 25,43 L 25,42 L 25,41 L 27,41 L 29,41 L 29,42 L 29,43 L 30,43 L 31,43 L 31,42 L 31,41 L 32,41 L 33,41 L 33,40 L 33,39 L 34.000001,39 L 35,39 L 35,41 L 35,43 L 36,43 L 37,43 L 37,44 L 37,45 L 35,45 L 33,45 L 33,44 L 33,43 L 32,43 L 31,43 L 31,44 L 31,45 L 30,45 L 29,45 L 29,44 z M 25,29 L 25,27 L 26,27 L 27,27 L 27,28 L 27,29 L 28,29 L 29,29 L 29,30 L 29,31 L 27,31 L 25,31 L 25,29 z M 55,52 L 55,49 L 52,49 L 49,49 L 49,52 L 49,55 L 52,55 L 55,55 L 55,52 z M 51,52 L 51,51 L 52,51 L 53,51 L 53,52 L 53,53 L 52,53 L 51,53 L 51,52 z M 35,52 L 35,51 L 34.000001,51 L 33,51 L 33,52 L 33,53 L 34.000001,53 L 35,53 L 35,52 z M 31,50 L 31,49 L 30,49 L 29,49 L 29,50 L 29,51 L 30,51 L 31,51 L 31,50 z M 51,45 L 51,43 L 52,43 L 53,43 L 53,45 L 53,47 L 57,47 L 61,47 L 61,46 L 61,45 L 59,45 L 57,45 L 57,44 L 57,43 L 55,43 L 53,43 L 53,42 L 53,41 L 52,41 L 51,41 L 51,40 L 51,39 L 49,39 L 47,39 L 47,40 L 47,41 L 46,41 L 45,41 L 45,42 L 45,43 L 46,43 L 47,43 L 47,44 L 47,45 L 48,45 L 49,45 L 49,46 L 49,47 L 50,47 L 51,47 L 51,45 z M 47,42 L 47,41 L 49,41 L 51,41 L 51,42 L 51,43 L 49,43 L 47,43 L 47,42 z M 15,44 L 15,43 L 14,43 L 13,43 L 13,44 L 13,45 L 14,45 L 15,45 L 15,44 z M 61,42 L 61,41 L 62,41 L 63.000001,41 L 63.000001,40 L 63.000001,39 L 62,39 L 61,39 L 61,34 L 61,29 L 60,29 L 59,29 L 59,32 L 59,35 L 57,35 L 55,35 L 55,34 L 55,33 L 56,33 L 57,33 L 57,32 L 57,31 L 54,31 L 51,31 L 51,32 L 51,33 L 52,33 L 53,33 L 53,36 L 53,39 L 54,39 L 55,39 L 55,40 L 55,41 L 56,41 L 57,41 L 57,39 L 57,37 L 58,37 L 59,37 L 59,37.999999 L 59,39 L 60,39 L 61,39 L 61,40 L 61,41 L 60,41 L 59,41 L 59,42 L 59,43 L 60,43 L 61,43 L 61,42 z M 11,40 L 11,39 L 10,39 L 9,39 L 9,40 L 9,41 L 10,41 L 11,41 L 11,40 z M 51,36 L 51,35 L 50,35 L 49,35 L 49,36 L 49,37 L 50,37 L 51,37 L 51,36 z M 55,27 L 55,25 L 53,25 L 51,25 L 51,26 L 51,27 L 52,27 L 53,27 L 53,28 L 53,29 L 54,29 L 55,29 L 55,27 z M 17,26 L 17,25 L 16,25 L 15,25 L 15,26 L 15,27 L 16,27 L 17,27 L 17,26 z M 21,26 L 21,25 L 20,25 L 19,25 L 19,26 L 19,27 L 20,27 L 21,27 L 21,26 z M 47,19 L 47,17 L 46,17 L 45,17 L 45,19 L 45,21 L 46,21 L 47,21 L 47,19 z M 45,14 L 45,13 L 44,13 L 43,13 L 43,12 L 43,11 L 44,11 L 45,11 L 45,10 L 45,9 L 44,9 L 43,9 L 43,10 L 43,11 L 42,11 L 41,11 L 41,10 L 41,9 L 37,9 L 33,9 L 33,10 L 33,11 L 36,11 L 39,11 L 39,12 L 39,13 L 41,13 L 43,13 L 43,14 L 43,15 L 44,15 L 45,15 L 45,14 z M 63.000001,54 L 63.000001,53 L 64,53 L 65,53 L 65,54 L 65,55 L 64,55 L 63.000001,55 L 63.000001,54 z M 7,33 L 7,31 L 10,31 L 13,31 L 13,32 L 13,33 L 14,33 L 15,33 L 15,34 L 15,35 L 14,35 L 13,35 L 13,34 L 13,33 L 11,33 L 9,33 L 9,34 L 9,35 L 8,35 L 7,35 L 7,33 z M 7,14 L 7,7 L 14,7 L 21,7 L 21,14 L 21,21 L 14,21 L 7,21 L 7,14 z M 19,14 L 19,9 L 14,9 L 9,9 L 9,14 L 9,19 L 14,19 L 19,19 L 19,14 z M 11,14 L 11,11 L 14,11 L 17,11 L 17,14 L 17,17 L 14,17 L 11,17 L 11,14 z M 35,20 L 35,19 L 36,19 L 37,19 L 37,20 L 37,21 L 36,21 L 35,21 L 35,20 z M 51,14 L 51,7 L 58,7 L 65,7 L 65,14 L 65,21 L 58,21 L 51,21 L 51,14 z M 63.000001,14 L 63.000001,9 L 58,9 L 53,9 L 53,14 L 53,19 L 58,19 L 63.000001,19 L 63.000001,14 z M 55,14 L 55,11 L 58,11 L 61,11 L 61,14 L 61,17 L 58,17 L 55,17 L 55,14 z M 31,16 L 31,15 L 32,15 L 33,15 L 33,16 L 33,17 L 32,17 L 31,17 L 31,16 z"
       id="path3210" />
  </g>
  <g
     inkscape:label="Layer 1"
     inkscape:groupmode="layer"
     id="layer1"
     style="display:inline">
    <path
       style="fill:url(#linearGradient3208);fill-opacity:1;display:inline"
       d="M 7,58 L 7,51 L 14,51 L 21,51 L 21,58 L 21,65 L 14,65 L 7,65 L 7,58 z M 19,58 L 19,53 L 14,53 L 9,53 L 9,58 L 9,63.000001 L 14,63.000001 L 19,63.000001 L 19,58 z M 11,58 L 11,55 L 14,55 L 17,55 L 17,58 L 17,61 L 14,61 L 11,61 L 11,58 z M 25,63.000001 L 25,61 L 24,61 L 23,61 L 23,58 L 23,55 L 24,55 L 25,55 L 25,54 L 25,53 L 26,53 L 27,53 L 27,52 L 27,51 L 25,51 L 23,51 L 23,49 L 23,47 L 22,47 L 21,47 L 21,48 L 21,49 L 19,49 L 17,49 L 17,48 L 17,47 L 19,47 L 21,47 L 21,46 L 21,45 L 18,45 L 15,45 L 15,46 L 15,47 L 14,47 L 13,47 L 13,46 L 13,45 L 12,45 L 11,45 L 11,44 L 11,43 L 10,43 L 9,43 L 9,46 L 9,49 L 8,49 L 7,49 L 7,44 L 7,39 L 8,39 L 9,39 L 9,37.999999 L 9,37 L 12,37 L 15,37 L 15,37.999999 L 15,39 L 16,39 L 17,39 L 17,40 L 17,41 L 18,41 L 19,41 L 19,40 L 19,39 L 20,39 L 21,39 L 21,37.999999 L 21,37 L 19,37 L 17,37 L 17,35 L 17,33 L 18,33 L 19,33 L 19,32 L 19,31 L 20,31 L 21,31 L 21,30 L 21,29 L 19,29 L 17,29 L 17,30 L 17,31 L 16,31 L 15,31 L 15,30 L 15,29 L 14,29 L 13,29 L 13,28 L 13,27 L 12,27 L 11,27 L 11,28 L 11,29 L 9,29 L 7,29 L 7,27 L 7,25 L 9,25 L 11,25 L 11,24 L 11,23 L 14,23 L 17,23 L 17,24 L 17,25 L 18,25 L 19,25 L 19,24 L 19,23 L 20,23 L 21,23 L 21,24 L 21,25 L 22,25 L 23,25 L 23,21 L 23,17 L 25,17 L 27,17 L 27,18 L 27,19 L 28,19 L 29,19 L 29,20 L 29,21 L 30,21 L 31,21 L 31,20 L 31,19 L 32,19 L 33,19 L 33,21 L 33,23 L 31,23 L 29,23 L 29,25 L 29,27 L 30,27 L 31,27 L 31,26 L 31,25 L 32,25 L 33,25 L 33,26 L 33,27 L 35,27 L 37,27 L 37,26 L 37,25 L 36,25 L 35,25 L 35,24 L 35,23 L 37,23 L 39,23 L 39,21 L 39,19 L 40,19 L 41,19 L 41,22 L 41,25 L 40,25 L 39,25 L 39,26 L 39,27 L 42,27 L 45,27 L 45,30 L 45,33 L 47,33 L 49,33 L 49,32 L 49,31 L 50,31 L 51,31 L 51,29 L 51,27 L 50,27 L 49,27 L 49,28 L 49,29 L 48,29 L 47,29 L 47,28 L 47,27 L 48,27 L 49,27 L 49,26 L 49,25 L 46,25 L 43,25 L 43,24 L 43,23 L 44,23 L 45,23 L 45,22 L 45,21 L 44,21 L 43,21 L 43,18 L 43,15 L 41,15 L 39,15 L 39,16 L 39,17 L 38,17 L 37,17 L 37,16 L 37,15 L 36,15 L 35,15 L 35,14 L 35,13 L 34.000001,13 L 33,13 L 33,12 L 33,11 L 32,11 L 31,11 L 31,12 L 31,13 L 30,13 L 29,13 L 29,14 L 29,15 L 27,15 L 25,15 L 25,14 L 25,13 L 24,13 L 23,13 L 23,10 L 23,7 L 24,7 L 25,7 L 25,8 L 25,9 L 27,9 L 29,9 L 29,8 L 29,7 L 37,7 L 45,7 L 45,8 L 45,9 L 46,9 L 47,9 L 47,8 L 47,7 L 48,7 L 49,7 L 49,8 L 49,9 L 48,9 L 47,9 L 47,10 L 47,11 L 48,11 L 49,11 L 49,12 L 49,13 L 48,13 L 47,13 L 47,15 L 47,17 L 48,17 L 49,17 L 49,20 L 49,23 L 52,23 L 55,23 L 55,24 L 55,25 L 57,25 L 59,25 L 59,24 L 59,23 L 62,23 L 65,23 L 65,25 L 65,27 L 64,27 L 63.000001,27 L 63.000001,26 L 63.000001,25 L 62,25 L 61,25 L 61,27 L 61,29 L 62,29 L 63.000001,29 L 63.000001,30 L 63.000001,31 L 64,31 L 65,31 L 65,33 L 65,35 L 64,35 L 63.000001,35 L 63.000001,37 L 63.000001,39 L 64,39 L 65,39 L 65,41 L 65,43 L 63.000001,43 L 61,43 L 61,44 L 61,45 L 63.000001,45 L 65,45 L 65,46 L 65,47 L 64,47 L 63.000001,47 L 63.000001,48 L 63.000001,49 L 64,49 L 65,49 L 65,50 L 65,51 L 63.000001,51 L 61,51 L 61,50 L 61,49 L 60,49 L 59,49 L 59,50 L 59,51 L 58,51 L 57,51 L 57,52 L 57,53 L 58,53 L 59,53 L 59,54 L 59,55 L 60,55 L 61,55 L 61,56 L 61,57 L 58,57 L 55,57 L 55,58 L 55,59 L 59,59 L 63.000001,59 L 63.000001,61 L 63.000001,63.000001 L 62,63.000001 L 61,63.000001 L 61,64 L 61,65 L 60,65 L 59,65 L 59,64 L 59,63.000001 L 58,63.000001 L 57,63.000001 L 57,64 L 57,65 L 56,65 L 55,65 L 55,62 L 55,59 L 54,59 L 53,59 L 53,60 L 53,61 L 52,61 L 51,61 L 51,62 L 51,63.000001 L 50,63.000001 L 49,63.000001 L 49,61 L 49,59 L 48,59 L 47,59 L 47,61 L 47,63.000001 L 44,63.000001 L 41,63.000001 L 41,64 L 41,65 L 39,65 L 37,65 L 37,64 L 37,63.000001 L 39,63.000001 L 41,63.000001 L 41,61 L 41,59 L 40,59 L 39,59 L 39,56 L 39,53 L 38,53 L 37,53 L 37,55 L 37,57 L 36,57 L 35,57 L 35,56 L 35,55 L 34.000001,55 L 33,55 L 33,57 L 33,59 L 35,59 L 37,59 L 37,60 L 37,61 L 36,61 L 35,61 L 35,63.000001 L 35,65 L 34.000001,65 L 33,65 L 33,63.000001 L 33,61 L 32,61 L 31,61 L 31,63.000001 L 31,65 L 28,65 L 25,65 L 25,63.000001 z M 61,62 L 61,61 L 60,61 L 59,61 L 59,62 L 59,63.000001 L 60,63.000001 L 61,63.000001 L 61,62 z M 29,60 L 29,59 L 30,59 L 31,59 L 31,56 L 31,53 L 29,53 L 27,53 L 27,55 L 27,57 L 28,57 L 29,57 L 29,58 L 29,59 L 27,59 L 25,59 L 25,60 L 25,61 L 27,61 L 29,61 L 29,60 z M 43,58 L 43,57 L 42,57 L 41,57 L 41,58 L 41,59 L 42,59 L 43,59 L 43,58 z M 53,58 L 53,57 L 51,57 L 49,57 L 49,58 L 49,59 L 51,59 L 53,59 L 53,58 z M 47,56 L 47,55 L 46,55 L 45,55 L 45,53 L 45,51 L 46,51 L 47,51 L 47,50 L 47,49 L 45,49 L 43,49 L 43,48 L 43,47 L 44,47 L 45,47 L 45,46 L 45,45 L 44,45 L 43,45 L 43,46 L 43,47 L 41,47 L 39,47 L 39,44 L 39,41 L 40,41 L 41,41 L 41,40 L 41,39 L 40,39 L 39,39 L 39,40 L 39,41 L 38,41 L 37,41 L 37,40 L 37,39 L 36,39 L 35,39 L 35,37 L 35,35 L 36,35 L 37,35 L 37,36 L 37,37 L 38,37 L 39,37 L 39,36 L 39,35 L 40,35 L 41,35 L 41,34 L 41,33 L 42,33 L 43,33 L 43,35 L 43,37 L 45,37 L 47,37 L 47,36 L 47,35 L 46,35 L 45,35 L 45,34 L 45,33 L 44,33 L 43,33 L 43,32 L 43,31 L 40,31 L 37,31 L 37,30 L 37,29 L 35,29 L 33,29 L 33,30 L 33,31 L 35,31 L 37,31 L 37,32 L 37,33 L 36,33 L 35,33 L 35,34 L 35,35 L 34.000001,35 L 33,35 L 33,34 L 33,33 L 32,33 L 31,33 L 31,31 L 31,29 L 30,29 L 29,29 L 29,28 L 29,27 L 28,27 L 27,27 L 27,23 L 27,19 L 26,19 L 25,19 L 25,23 L 25,27 L 24,27 L 23,27 L 23,29 L 23,31 L 22,31 L 21,31 L 21,32 L 21,33 L 20,33 L 19,33 L 19,34 L 19,35 L 21,35 L 23,35 L 23,34 L 23,33 L 27,33 L 31,33 L 31,34 L 31,35 L 28,35 L 25,35 L 25,36 L 25,37 L 29,37 L 33,37 L 33,37.999999 L 33,39 L 32,39 L 31,39 L 31,40 L 31,41 L 30,41 L 29,41 L 29,40 L 29,39 L 25,39 L 21,39 L 21,40 L 21,41 L 20,41 L 19,41 L 19,42 L 19,43 L 20,43 L 21,43 L 21,42 L 21,41 L 22,41 L 23,41 L 23,42 L 23,43 L 24,43 L 25,43 L 25,44 L 25,45 L 24,45 L 23,45 L 23,46 L 23,47 L 28,47 L 33,47 L 33,48 L 33,49 L 35,49 L 37,49 L 37,50 L 37,51 L 39,51 L 41,51 L 41,52 L 41,53 L 42,53 L 43,53 L 43,54 L 43,55 L 44,55 L 45,55 L 45,56 L 45,57 L 46,57 L 47,57 L 47,56 z M 37,48 L 37,47 L 38,47 L 39,47 L 39,48 L 39,49 L 38,49 L 37,49 L 37,48 z M 29,44 L 29,43 L 27,43 L 25,43 L 25,42 L 25,41 L 27,41 L 29,41 L 29,42 L 29,43 L 30,43 L 31,43 L 31,42 L 31,41 L 32,41 L 33,41 L 33,40 L 33,39 L 34.000001,39 L 35,39 L 35,41 L 35,43 L 36,43 L 37,43 L 37,44 L 37,45 L 35,45 L 33,45 L 33,44 L 33,43 L 32,43 L 31,43 L 31,44 L 31,45 L 30,45 L 29,45 L 29,44 z M 25,29 L 25,27 L 26,27 L 27,27 L 27,28 L 27,29 L 28,29 L 29,29 L 29,30 L 29,31 L 27,31 L 25,31 L 25,29 z M 55,52 L 55,49 L 52,49 L 49,49 L 49,52 L 49,55 L 52,55 L 55,55 L 55,52 z M 51,52 L 51,51 L 52,51 L 53,51 L 53,52 L 53,53 L 52,53 L 51,53 L 51,52 z M 35,52 L 35,51 L 34.000001,51 L 33,51 L 33,52 L 33,53 L 34.000001,53 L 35,53 L 35,52 z M 31,50 L 31,49 L 30,49 L 29,49 L 29,50 L 29,51 L 30,51 L 31,51 L 31,50 z M 51,45 L 51,43 L 52,43 L 53,43 L 53,45 L 53,47 L 57,47 L 61,47 L 61,46 L 61,45 L 59,45 L 57,45 L 57,44 L 57,43 L 55,43 L 53,43 L 53,42 L 53,41 L 52,41 L 51,41 L 51,40 L 51,39 L 49,39 L 47,39 L 47,40 L 47,41 L 46,41 L 45,41 L 45,42 L 45,43 L 46,43 L 47,43 L 47,44 L 47,45 L 48,45 L 49,45 L 49,46 L 49,47 L 50,47 L 51,47 L 51,45 z M 47,42 L 47,41 L 49,41 L 51,41 L 51,42 L 51,43 L 49,43 L 47,43 L 47,42 z M 15,44 L 15,43 L 14,43 L 13,43 L 13,44 L 13,45 L 14,45 L 15,45 L 15,44 z M 61,42 L 61,41 L 62,41 L 63.000001,41 L 63.000001,40 L 63.000001,39 L 62,39 L 61,39 L 61,34 L 61,29 L 60,29 L 59,29 L 59,32 L 59,35 L 57,35 L 55,35 L 55,34 L 55,33 L 56,33 L 57,33 L 57,32 L 57,31 L 54,31 L 51,31 L 51,32 L 51,33 L 52,33 L 53,33 L 53,36 L 53,39 L 54,39 L 55,39 L 55,40 L 55,41 L 56,41 L 57,41 L 57,39 L 57,37 L 58,37 L 59,37 L 59,37.999999 L 59,39 L 60,39 L 61,39 L 61,40 L 61,41 L 60,41 L 59,41 L 59,42 L 59,43 L 60,43 L 61,43 L 61,42 z M 11,40 L 11,39 L 10,39 L 9,39 L 9,40 L 9,41 L 10,41 L 11,41 L 11,40 z M 51,36 L 51,35 L 50,35 L 49,35 L 49,36 L 49,37 L 50,37 L 51,37 L 51,36 z M 55,27 L 55,25 L 53,25 L 51,25 L 51,26 L 51,27 L 52,27 L 53,27 L 53,28 L 53,29 L 54,29 L 55,29 L 55,27 z M 17,26 L 17,25 L 16,25 L 15,25 L 15,26 L 15,27 L 16,27 L 17,27 L 17,26 z M 21,26 L 21,25 L 20,25 L 19,25 L 19,26 L 19,27 L 20,27 L 21,27 L 21,26 z M 47,19 L 47,17 L 46,17 L 45,17 L 45,19 L 45,21 L 46,21 L 47,21 L 47,19 z M 45,14 L 45,13 L 44,13 L 43,13 L 43,12 L 43,11 L 44,11 L 45,11 L 45,10 L 45,9 L 44,9 L 43,9 L 43,10 L 43,11 L 42,11 L 41,11 L 41,10 L 41,9 L 37,9 L 33,9 L 33,10 L 33,11 L 36,11 L 39,11 L 39,12 L 39,13 L 41,13 L 43,13 L 43,14 L 43,15 L 44,15 L 45,15 L 45,14 z M 63.000001,54 L 63.000001,53 L 64,53 L 65,53 L 65,54 L 65,55 L 64,55 L 63.000001,55 L 63.000001,54 z M 7,33 L 7,31 L 10,31 L 13,31 L 13,32 L 13,33 L 14,33 L 15,33 L 15,34 L 15,35 L 14,35 L 13,35 L 13,34 L 13,33 L 11,33 L 9,33 L 9,34 L 9,35 L 8,35 L 7,35 L 7,33 z M 7,14 L 7,7 L 14,7 L 21,7 L 21,14 L 21,21 L 14,21 L 7,21 L 7,14 z M 19,14 L 19,9 L 14,9 L 9,9 L 9,14 L 9,19 L 14,19 L 19,19 L 19,14 z M 11,14 L 11,11 L 14,11 L 17,11 L 17,14 L 17,17 L 14,17 L 11,17 L 11,14 z M 35,20 L 35,19 L 36,19 L 37,19 L 37,20 L 37,21 L 36,21 L 35,21 L 35,20 z M 51,14 L 51,7 L 58,7 L 65,7 L 65,14 L 65,21 L 58,21 L 51,21 L 51,14 z M 63.000001,14 L 63.000001,9 L 58,9 L 53,9 L 53,14 L 53,19 L 58,19 L 63.000001,19 L 63.000001,14 z M 55,14 L 55,11 L 58,11 L 61,11 L 61,14 L 61,17 L 58,17 L 55,17 L 55,14 z M 31,16 L 31,15 L 32,15 L 33,15 L 33,16 L 33,17 L 32,17 L 31,17 L 31,16 z"
       id="path2580" />
  </g>
  <g
     inkscape:groupmode="layer"
     id="layer3"
     inkscape:label="inner shadow"
     style="display:inline">
    <path
       style="opacity:0.2;fill:#000000;fill-opacity:1;display:inline;filter:url(#filter3221)"
       d="M 7,58 L 7,51 L 14,51 L 21,51 L 21,58 L 21,65 L 14,65 L 7,65 L 7,58 z M 19,58 L 19,53 L 14,53 L 9,53 L 9,58 L 9,63.000001 L 14,63.000001 L 19,63.000001 L 19,58 z M 11,58 L 11,55 L 14,55 L 17,55 L 17,58 L 17,61 L 14,61 L 11,61 L 11,58 z M 25,63.000001 L 25,61 L 24,61 L 23,61 L 23,58 L 23,55 L 24,55 L 25,55 L 25,54 L 25,53 L 26,53 L 27,53 L 27,52 L 27,51 L 25,51 L 23,51 L 23,49 L 23,47 L 22,47 L 21,47 L 21,48 L 21,49 L 19,49 L 17,49 L 17,48 L 17,47 L 19,47 L 21,47 L 21,46 L 21,45 L 18,45 L 15,45 L 15,46 L 15,47 L 14,47 L 13,47 L 13,46 L 13,45 L 12,45 L 11,45 L 11,44 L 11,43 L 10,43 L 9,43 L 9,46 L 9,49 L 8,49 L 7,49 L 7,44 L 7,39 L 8,39 L 9,39 L 9,37.999999 L 9,37 L 12,37 L 15,37 L 15,37.999999 L 15,39 L 16,39 L 17,39 L 17,40 L 17,41 L 18,41 L 19,41 L 19,40 L 19,39 L 20,39 L 21,39 L 21,37.999999 L 21,37 L 19,37 L 17,37 L 17,35 L 17,33 L 18,33 L 19,33 L 19,32 L 19,31 L 20,31 L 21,31 L 21,30 L 21,29 L 19,29 L 17,29 L 17,30 L 17,31 L 16,31 L 15,31 L 15,30 L 15,29 L 14,29 L 13,29 L 13,28 L 13,27 L 12,27 L 11,27 L 11,28 L 11,29 L 9,29 L 7,29 L 7,27 L 7,25 L 9,25 L 11,25 L 11,24 L 11,23 L 14,23 L 17,23 L 17,24 L 17,25 L 18,25 L 19,25 L 19,24 L 19,23 L 20,23 L 21,23 L 21,24 L 21,25 L 22,25 L 23,25 L 23,21 L 23,17 L 25,17 L 27,17 L 27,18 L 27,19 L 28,19 L 29,19 L 29,20 L 29,21 L 30,21 L 31,21 L 31,20 L 31,19 L 32,19 L 33,19 L 33,21 L 33,23 L 31,23 L 29,23 L 29,25 L 29,27 L 30,27 L 31,27 L 31,26 L 31,25 L 32,25 L 33,25 L 33,26 L 33,27 L 35,27 L 37,27 L 37,26 L 37,25 L 36,25 L 35,25 L 35,24 L 35,23 L 37,23 L 39,23 L 39,21 L 39,19 L 40,19 L 41,19 L 41,22 L 41,25 L 40,25 L 39,25 L 39,26 L 39,27 L 42,27 L 45,27 L 45,30 L 45,33 L 47,33 L 49,33 L 49,32 L 49,31 L 50,31 L 51,31 L 51,29 L 51,27 L 50,27 L 49,27 L 49,28 L 49,29 L 48,29 L 47,29 L 47,28 L 47,27 L 48,27 L 49,27 L 49,26 L 49,25 L 46,25 L 43,25 L 43,24 L 43,23 L 44,23 L 45,23 L 45,22 L 45,21 L 44,21 L 43,21 L 43,18 L 43,15 L 41,15 L 39,15 L 39,16 L 39,17 L 38,17 L 37,17 L 37,16 L 37,15 L 36,15 L 35,15 L 35,14 L 35,13 L 34.000001,13 L 33,13 L 33,12 L 33,11 L 32,11 L 31,11 L 31,12 L 31,13 L 30,13 L 29,13 L 29,14 L 29,15 L 27,15 L 25,15 L 25,14 L 25,13 L 24,13 L 23,13 L 23,10 L 23,7 L 24,7 L 25,7 L 25,8 L 25,9 L 27,9 L 29,9 L 29,8 L 29,7 L 37,7 L 45,7 L 45,8 L 45,9 L 46,9 L 47,9 L 47,8 L 47,7 L 48,7 L 49,7 L 49,8 L 49,9 L 48,9 L 47,9 L 47,10 L 47,11 L 48,11 L 49,11 L 49,12 L 49,13 L 48,13 L 47,13 L 47,15 L 47,17 L 48,17 L 49,17 L 49,20 L 49,23 L 52,23 L 55,23 L 55,24 L 55,25 L 57,25 L 59,25 L 59,24 L 59,23 L 62,23 L 65,23 L 65,25 L 65,27 L 64,27 L 63.000001,27 L 63.000001,26 L 63.000001,25 L 62,25 L 61,25 L 61,27 L 61,29 L 62,29 L 63.000001,29 L 63.000001,30 L 63.000001,31 L 64,31 L 65,31 L 65,33 L 65,35 L 64,35 L 63.000001,35 L 63.000001,37 L 63.000001,39 L 64,39 L 65,39 L 65,41 L 65,43 L 63.000001,43 L 61,43 L 61,44 L 61,45 L 63.000001,45 L 65,45 L 65,46 L 65,47 L 64,47 L 63.000001,47 L 63.000001,48 L 63.000001,49 L 64,49 L 65,49 L 65,50 L 65,51 L 63.000001,51 L 61,51 L 61,50 L 61,49 L 60,49 L 59,49 L 59,50 L 59,51 L 58,51 L 57,51 L 57,52 L 57,53 L 58,53 L 59,53 L 59,54 L 59,55 L 60,55 L 61,55 L 61,56 L 61,57 L 58,57 L 55,57 L 55,58 L 55,59 L 59,59 L 63.000001,59 L 63.000001,61 L 63.000001,63.000001 L 62,63.000001 L 61,63.000001 L 61,64 L 61,65 L 60,65 L 59,65 L 59,64 L 59,63.000001 L 58,63.000001 L 57,63.000001 L 57,64 L 57,65 L 56,65 L 55,65 L 55,62 L 55,59 L 54,59 L 53,59 L 53,60 L 53,61 L 52,61 L 51,61 L 51,62 L 51,63.000001 L 50,63.000001 L 49,63.000001 L 49,61 L 49,59 L 48,59 L 47,59 L 47,61 L 47,63.000001 L 44,63.000001 L 41,63.000001 L 41,64 L 41,65 L 39,65 L 37,65 L 37,64 L 37,63.000001 L 39,63.000001 L 41,63.000001 L 41,61 L 41,59 L 40,59 L 39,59 L 39,56 L 39,53 L 38,53 L 37,53 L 37,55 L 37,57 L 36,57 L 35,57 L 35,56 L 35,55 L 34.000001,55 L 33,55 L 33,57 L 33,59 L 35,59 L 37,59 L 37,60 L 37,61 L 36,61 L 35,61 L 35,63.000001 L 35,65 L 34.000001,65 L 33,65 L 33,63.000001 L 33,61 L 32,61 L 31,61 L 31,63.000001 L 31,65 L 28,65 L 25,65 L 25,63.000001 z M 61,62 L 61,61 L 60,61 L 59,61 L 59,62 L 59,63.000001 L 60,63.000001 L 61,63.000001 L 61,62 z M 29,60 L 29,59 L 30,59 L 31,59 L 31,56 L 31,53 L 29,53 L 27,53 L 27,55 L 27,57 L 28,57 L 29,57 L 29,58 L 29,59 L 27,59 L 25,59 L 25,60 L 25,61 L 27,61 L 29,61 L 29,60 z M 43,58 L 43,57 L 42,57 L 41,57 L 41,58 L 41,59 L 42,59 L 43,59 L 43,58 z M 53,58 L 53,57 L 51,57 L 49,57 L 49,58 L 49,59 L 51,59 L 53,59 L 53,58 z M 47,56 L 47,55 L 46,55 L 45,55 L 45,53 L 45,51 L 46,51 L 47,51 L 47,50 L 47,49 L 45,49 L 43,49 L 43,48 L 43,47 L 44,47 L 45,47 L 45,46 L 45,45 L 44,45 L 43,45 L 43,46 L 43,47 L 41,47 L 39,47 L 39,44 L 39,41 L 40,41 L 41,41 L 41,40 L 41,39 L 40,39 L 39,39 L 39,40 L 39,41 L 38,41 L 37,41 L 37,40 L 37,39 L 36,39 L 35,39 L 35,37 L 35,35 L 36,35 L 37,35 L 37,36 L 37,37 L 38,37 L 39,37 L 39,36 L 39,35 L 40,35 L 41,35 L 41,34 L 41,33 L 42,33 L 43,33 L 43,35 L 43,37 L 45,37 L 47,37 L 47,36 L 47,35 L 46,35 L 45,35 L 45,34 L 45,33 L 44,33 L 43,33 L 43,32 L 43,31 L 40,31 L 37,31 L 37,30 L 37,29 L 35,29 L 33,29 L 33,30 L 33,31 L 35,31 L 37,31 L 37,32 L 37,33 L 36,33 L 35,33 L 35,34 L 35,35 L 34.000001,35 L 33,35 L 33,34 L 33,33 L 32,33 L 31,33 L 31,31 L 31,29 L 30,29 L 29,29 L 29,28 L 29,27 L 28,27 L 27,27 L 27,23 L 27,19 L 26,19 L 25,19 L 25,23 L 25,27 L 24,27 L 23,27 L 23,29 L 23,31 L 22,31 L 21,31 L 21,32 L 21,33 L 20,33 L 19,33 L 19,34 L 19,35 L 21,35 L 23,35 L 23,34 L 23,33 L 27,33 L 31,33 L 31,34 L 31,35 L 28,35 L 25,35 L 25,36 L 25,37 L 29,37 L 33,37 L 33,37.999999 L 33,39 L 32,39 L 31,39 L 31,40 L 31,41 L 30,41 L 29,41 L 29,40 L 29,39 L 25,39 L 21,39 L 21,40 L 21,41 L 20,41 L 19,41 L 19,42 L 19,43 L 20,43 L 21,43 L 21,42 L 21,41 L 22,41 L 23,41 L 23,42 L 23,43 L 24,43 L 25,43 L 25,44 L 25,45 L 24,45 L 23,45 L 23,46 L 23,47 L 28,47 L 33,47 L 33,48 L 33,49 L 35,49 L 37,49 L 37,50 L 37,51 L 39,51 L 41,51 L 41,52 L 41,53 L 42,53 L 43,53 L 43,54 L 43,55 L 44,55 L 45,55 L 45,56 L 45,57 L 46,57 L 47,57 L 47,56 z M 37,48 L 37,47 L 38,47 L 39,47 L 39,48 L 39,49 L 38,49 L 37,49 L 37,48 z M 29,44 L 29,43 L 27,43 L 25,43 L 25,42 L 25,41 L 27,41 L 29,41 L 29,42 L 29,43 L 30,43 L 31,43 L 31,42 L 31,41 L 32,41 L 33,41 L 33,40 L 33,39 L 34.000001,39 L 35,39 L 35,41 L 35,43 L 36,43 L 37,43 L 37,44 L 37,45 L 35,45 L 33,45 L 33,44 L 33,43 L 32,43 L 31,43 L 31,44 L 31,45 L 30,45 L 29,45 L 29,44 z M 25,29 L 25,27 L 26,27 L 27,27 L 27,28 L 27,29 L 28,29 L 29,29 L 29,30 L 29,31 L 27,31 L 25,31 L 25,29 z M 55,52 L 55,49 L 52,49 L 49,49 L 49,52 L 49,55 L 52,55 L 55,55 L 55,52 z M 51,52 L 51,51 L 52,51 L 53,51 L 53,52 L 53,53 L 52,53 L 51,53 L 51,52 z M 35,52 L 35,51 L 34.000001,51 L 33,51 L 33,52 L 33,53 L 34.000001,53 L 35,53 L 35,52 z M 31,50 L 31,49 L 30,49 L 29,49 L 29,50 L 29,51 L 30,51 L 31,51 L 31,50 z M 51,45 L 51,43 L 52,43 L 53,43 L 53,45 L 53,47 L 57,47 L 61,47 L 61,46 L 61,45 L 59,45 L 57,45 L 57,44 L 57,43 L 55,43 L 53,43 L 53,42 L 53,41 L 52,41 L 51,41 L 51,40 L 51,39 L 49,39 L 47,39 L 47,40 L 47,41 L 46,41 L 45,41 L 45,42 L 45,43 L 46,43 L 47,43 L 47,44 L 47,45 L 48,45 L 49,45 L 49,46 L 49,47 L 50,47 L 51,47 L 51,45 z M 47,42 L 47,41 L 49,41 L 51,41 L 51,42 L 51,43 L 49,43 L 47,43 L 47,42 z M 15,44 L 15,43 L 14,43 L 13,43 L 13,44 L 13,45 L 14,45 L 15,45 L 15,44 z M 61,42 L 61,41 L 62,41 L 63.000001,41 L 63.000001,40 L 63.000001,39 L 62,39 L 61,39 L 61,34 L 61,29 L 60,29 L 59,29 L 59,32 L 59,35 L 57,35 L 55,35 L 55,34 L 55,33 L 56,33 L 57,33 L 57,32 L 57,31 L 54,31 L 51,31 L 51,32 L 51,33 L 52,33 L 53,33 L 53,36 L 53,39 L 54,39 L 55,39 L 55,40 L 55,41 L 56,41 L 57,41 L 57,39 L 57,37 L 58,37 L 59,37 L 59,37.999999 L 59,39 L 60,39 L 61,39 L 61,40 L 61,41 L 60,41 L 59,41 L 59,42 L 59,43 L 60,43 L 61,43 L 61,42 z M 11,40 L 11,39 L 10,39 L 9,39 L 9,40 L 9,41 L 10,41 L 11,41 L 11,40 z M 51,36 L 51,35 L 50,35 L 49,35 L 49,36 L 49,37 L 50,37 L 51,37 L 51,36 z M 55,27 L 55,25 L 53,25 L 51,25 L 51,26 L 51,27 L 52,27 L 53,27 L 53,28 L 53,29 L 54,29 L 55,29 L 55,27 z M 17,26 L 17,25 L 16,25 L 15,25 L 15,26 L 15,27 L 16,27 L 17,27 L 17,26 z M 21,26 L 21,25 L 20,25 L 19,25 L 19,26 L 19,27 L 20,27 L 21,27 L 21,26 z M 47,19 L 47,17 L 46,17 L 45,17 L 45,19 L 45,21 L 46,21 L 47,21 L 47,19 z M 45,14 L 45,13 L 44,13 L 43,13 L 43,12 L 43,11 L 44,11 L 45,11 L 45,10 L 45,9 L 44,9 L 43,9 L 43,10 L 43,11 L 42,11 L 41,11 L 41,10 L 41,9 L 37,9 L 33,9 L 33,10 L 33,11 L 36,11 L 39,11 L 39,12 L 39,13 L 41,13 L 43,13 L 43,14 L 43,15 L 44,15 L 45,15 L 45,14 z M 63.000001,54 L 63.000001,53 L 64,53 L 65,53 L 65,54 L 65,55 L 64,55 L 63.000001,55 L 63.000001,54 z M 7,33 L 7,31 L 10,31 L 13,31 L 13,32 L 13,33 L 14,33 L 15,33 L 15,34 L 15,35 L 14,35 L 13,35 L 13,34 L 13,33 L 11,33 L 9,33 L 9,34 L 9,35 L 8,35 L 7,35 L 7,33 z M 7,14 L 7,7 L 14,7 L 21,7 L 21,14 L 21,21 L 14,21 L 7,21 L 7,14 z M 19,14 L 19,9 L 14,9 L 9,9 L 9,14 L 9,19 L 14,19 L 19,19 L 19,14 z M 11,14 L 11,11 L 14,11 L 17,11 L 17,14 L 17,17 L 14,17 L 11,17 L 11,14 z M 35,20 L 35,19 L 36,19 L 37,19 L 37,20 L 37,21 L 36,21 L 35,21 L 35,20 z M 51,14 L 51,7 L 58,7 L 65,7 L 65,14 L 65,21 L 58,21 L 51,21 L 51,14 z M 63.000001,14 L 63.000001,9 L 58,9 L 53,9 L 53,14 L 53,19 L 58,19 L 63.000001,19 L 63.000001,14 z M 55,14 L 55,11 L 58,11 L 61,11 L 61,14 L 61,17 L 58,17 L 55,17 L 55,14 z M 31,16 L 31,15 L 32,15 L 33,15 L 33,16 L 33,17 L 32,17 L 31,17 L 31,16 z"
       id="path3219"
       clip-path="url(#clipPath3241)" />
  </g>
</svg>
