<?xml version="1.0" encoding="UTF-8" standalone="no"?>
<!-- Created with Inkscape (http://www.inkscape.org/) -->
<svg
   xmlns:dc="http://purl.org/dc/elements/1.1/"
   xmlns:cc="http://creativecommons.org/ns#"
   xmlns:rdf="http://www.w3.org/1999/02/22-rdf-syntax-ns#"
   xmlns:svg="http://www.w3.org/2000/svg"
   xmlns="http://www.w3.org/2000/svg"
   xmlns:xlink="http://www.w3.org/1999/xlink"
   xmlns:sodipodi="http://sodipodi.sourceforge.net/DTD/sodipodi-0.dtd"
   xmlns:inkscape="http://www.inkscape.org/namespaces/inkscape"
   width="72"
   height="72"
   id="svg3374"
   sodipodi:version="0.32"
   inkscape:version="0.46"
   version="1.0"
   sodipodi:docname="ic_picsource_use_default.svg"
   inkscape:output_extension="org.inkscape.output.svg.inkscape"
   inkscape:export-filename="D:\work\android\MultiPicture\icon.png"
   inkscape:export-xdpi="90"
   inkscape:export-ydpi="90">
  <defs
     id="defs3376">
    <linearGradient
       id="linearGradient3230">
      <stop
         style="stop-color:#a8d351;stop-opacity:1;"
         offset="0"
         id="stop3232" />
      <stop
         style="stop-color:#83ae2c;stop-opacity:1;"
         offset="1"
         id="stop3234" />
    </linearGradient>
    <linearGradient
       id="linearGradient3222">
      <stop
         style="stop-color:#7da826;stop-opacity:1;"
         offset="0"
         id="stop3224" />
      <stop
         style="stop-color:#588301;stop-opacity:1;"
         offset="1"
         id="stop3226" />
    </linearGradient>
    <filter
       inkscape:collect="always"
       id="filter3263">
      <feGaussianBlur
         inkscape:collect="always"
         stdDeviation="1.3726457"
         id="feGaussianBlur3265" />
    </filter>
    <linearGradient
       inkscape:collect="always"
       xlink:href="#linearGradient3230"
       id="linearGradient3267"
       gradientUnits="userSpaceOnUse"
       x1="47"
       y1="9"
       x2="47"
       y2="63" />
    <linearGradient
       inkscape:collect="always"
       xlink:href="#linearGradient3222"
       id="linearGradient3269"
       gradientUnits="userSpaceOnUse"
       x1="48"
       y1="9"
       x2="48"
       y2="65" />
  </defs>
  <sodipodi:namedview
     id="base"
     pagecolor="#ffffff"
     bordercolor="#666666"
     borderopacity="1.0"
     gridtolerance="10000"
     guidetolerance="10"
     objecttolerance="10"
     inkscape:pageopacity="0.0"
     inkscape:pageshadow="2"
     inkscape:zoom="10.333333"
     inkscape:cx="36.138894"
     inkscape:cy="36.860661"
     inkscape:document-units="px"
     inkscape:current-layer="layer1"
     showgrid="true"
     inkscape:window-width="929"
     inkscape:window-height="956"
     inkscape:window-x="83"
     inkscape:window-y="3">
    <inkscape:grid
       type="xygrid"
       id="grid3384"
       units="px"
       visible="true"
       enabled="true"
       spacingx="1px"
       spacingy="1px" />
  </sodipodi:namedview>
  <metadata
     id="metadata3379">
    <rdf:RDF>
      <cc:Work
         rdf:about="">
        <dc:format>image/svg+xml</dc:format>
        <dc:type
           rdf:resource="http://purl.org/dc/dcmitype/StillImage" />
      </cc:Work>
    </rdf:RDF>
  </metadata>
  <g
     inkscape:groupmode="layer"
     id="layer2"
     inkscape:label="shadow">
    <path
       style="opacity:0.75;fill:#000000;fill-opacity:1;fill-rule:nonzero;stroke:none;stroke-width:3;stroke-linecap:butt;stroke-linejoin:round;stroke-miterlimit:4;stroke-dasharray:none;stroke-dashoffset:0;stroke-opacity:1;display:inline;filter:url(#filter3263)"
       d="M 46.84375,5.5 C 46.453816,5.5396486 46.094884,5.7303311 45.84375,6.03125 L 28.84375,26.03125 C 28.465386,26.478702 28.38219,27.105501 28.630728,27.636162 C 28.879265,28.166823 29.414035,28.504196 30,28.5 L 36.5,28.5 L 36.5,42 C 36.5,43.964946 34.964946,45.5 33,45.5 L 7,45.5 C 6.1716072,45.500083 5.5000828,46.171607 5.5,47 L 5.5,65 C 5.5000828,65.828393 6.1716072,66.499917 7,66.5 L 47,66.5 C 53.345054,66.5 58.5,61.345054 58.5,55 L 58.5,28.5 L 65,28.5 C 65.585965,28.504196 66.120735,28.166823 66.369272,27.636162 C 66.61781,27.105501 66.534614,26.478702 66.15625,26.03125 L 49.15625,6.03125 C 48.868746,5.6913828 48.445149,5.4967569 48,5.5 L 47,5.5 C 46.947952,5.4972858 46.895798,5.4972858 46.84375,5.5 z"
       id="path3239"
       sodipodi:nodetypes="cccsccccccccccccsccccc"
       transform="matrix(1.0000015,0,0,1,-7.9849978e-6,2)" />
  </g>
  <g
     inkscape:label="Layer 1"
     inkscape:groupmode="layer"
     id="layer1"
     style="display:inline">
    <path
       style="opacity:1;fill:url(#linearGradient3267);fill-opacity:1;fill-rule:nonzero;stroke:url(#linearGradient3269);stroke-width:3;stroke-linecap:butt;stroke-linejoin:round;stroke-miterlimit:4;stroke-dasharray:none;stroke-dashoffset:0;stroke-opacity:1"
       d="M 47,7 L 30,27 L 38,27 L 38,42 C 38,44.77 35.77,47 33,47 L 7,47 L 7,65 L 47,65 C 52.54,65 57,60.54 57,55 L 57,27 L 65,27 L 48,7 L 47,7 z"
       id="rect2709"
       sodipodi:nodetypes="ccccccccccccc" />
  </g>
</svg>
