<?xml version="1.0" encoding="UTF-8" standalone="no"?>
<!-- Created with Inkscape (http://www.inkscape.org/) -->
<svg
   xmlns:dc="http://purl.org/dc/elements/1.1/"
   xmlns:cc="http://creativecommons.org/ns#"
   xmlns:rdf="http://www.w3.org/1999/02/22-rdf-syntax-ns#"
   xmlns:svg="http://www.w3.org/2000/svg"
   xmlns="http://www.w3.org/2000/svg"
   xmlns:xlink="http://www.w3.org/1999/xlink"
   xmlns:sodipodi="http://sodipodi.sourceforge.net/DTD/sodipodi-0.dtd"
   xmlns:inkscape="http://www.inkscape.org/namespaces/inkscape"
   width="72"
   height="72"
   id="svg2"
   sodipodi:version="0.32"
   inkscape:version="0.46"
   version="1.0"
   sodipodi:docname="ika.svg"
   inkscape:output_extension="org.inkscape.output.svg.inkscape"
   inkscape:export-filename="D:\work\android\MultiPicture\spinner.png"
   inkscape:export-xdpi="45"
   inkscape:export-ydpi="45">
  <defs
     id="defs4">
    <linearGradient
       id="linearGradient11826">
      <stop
         style="stop-color:#ffffff;stop-opacity:0.75686276;"
         offset="0"
         id="stop11828" />
      <stop
         style="stop-color:#ffffff;stop-opacity:0.06896552;"
         offset="1"
         id="stop11830" />
    </linearGradient>
    <clipPath
       clipPathUnits="userSpaceOnUse"
       id="clipPath11963">
      <path
         style="fill:#ffffff;fill-opacity:0.6;fill-rule:nonzero;stroke:none;stroke-width:10;stroke-linecap:butt;stroke-linejoin:round;stroke-miterlimit:4;stroke-dasharray:none;stroke-dashoffset:0;stroke-opacity:1"
         d="M 62,27 L 55,35 L 57,36 C 57,47.646686 47.646686,57 36,57 C 33.979841,57 32.513824,56.804105 30.5625,56.28125 L 27.96875,65.9375 C 30.638416,66.652835 33.236159,67 36,67 C 53.057314,67 67,53.057314 67,36 L 69,35 L 62,27 z"
         id="path11965"
         sodipodi:nodetypes="cccsccsccc" />
    </clipPath>
    <filter
       inkscape:collect="always"
       id="filter12569"
       x="-0.15970661"
       width="1.3194132"
       y="-0.16382405"
       height="1.3276481">
      <feGaussianBlur
         inkscape:collect="always"
         stdDeviation="2.7304008"
         id="feGaussianBlur12571" />
    </filter>
    <linearGradient
       inkscape:collect="always"
       xlink:href="#linearGradient11826"
       id="linearGradient12610"
       gradientUnits="userSpaceOnUse"
       x1="63"
       y1="34"
       x2="35"
       y2="64" />
    <linearGradient
       inkscape:collect="always"
       xlink:href="#linearGradient11826"
       id="linearGradient12612"
       gradientUnits="userSpaceOnUse"
       x1="63"
       y1="34"
       x2="35"
       y2="64" />
    <linearGradient
       inkscape:collect="always"
       xlink:href="#linearGradient11826"
       id="linearGradient12614"
       gradientUnits="userSpaceOnUse"
       x1="63"
       y1="34"
       x2="35"
       y2="64" />
  </defs>
  <sodipodi:namedview
     id="base"
     pagecolor="#616161"
     bordercolor="#666666"
     borderopacity="1"
     gridtolerance="10000"
     guidetolerance="10"
     objecttolerance="10"
     inkscape:pageopacity="1"
     inkscape:pageshadow="2"
     inkscape:zoom="9.345679"
     inkscape:cx="39.773268"
     inkscape:cy="35.248339"
     inkscape:document-units="px"
     inkscape:current-layer="layer1"
     showgrid="true"
     inkscape:window-width="1051"
     inkscape:window-height="969"
     inkscape:window-x="177"
     inkscape:window-y="0">
    <inkscape:grid
       type="xygrid"
       id="grid2396"
       units="px"
       visible="true"
       enabled="true"
       spacingx="1px"
       spacingy="1px" />
  </sodipodi:namedview>
  <metadata
     id="metadata7">
    <rdf:RDF>
      <cc:Work
         rdf:about="">
        <dc:format>image/svg+xml</dc:format>
        <dc:type
           rdf:resource="http://purl.org/dc/dcmitype/StillImage" />
      </cc:Work>
    </rdf:RDF>
  </metadata>
  <g
     inkscape:label="Layer 1"
     inkscape:groupmode="layer"
     id="layer1">
    <g
       id="g12599"
       transform="matrix(1.0674662,0,0,-1.0674662,-2.4917387,74.292024)">
      <path
         clip-path="url(#clipPath11963)"
         style="fill:url(#linearGradient12610);fill-opacity:1;fill-rule:nonzero;stroke:none;stroke-width:10;stroke-linecap:butt;stroke-linejoin:round;stroke-miterlimit:4;stroke-dasharray:none;stroke-dashoffset:0;stroke-opacity:1;filter:url(#filter12569)"
         d="M 62,27 L 55,35 L 57,36 C 57,47.646686 47.646686,57 36,57 C 33.979841,57 32.513824,56.804105 30.5625,56.28125 L 27.96875,65.9375 C 30.638416,66.652835 33.236159,67 36,67 C 53.057314,67 67,53.057314 67,36 L 69,35 L 62,27 z"
         id="path11824"
         sodipodi:nodetypes="cccsccsccc" />
      <path
         transform="matrix(-0.5,-0.8660254,0.8660254,-0.5,22.323086,85.023702)"
         sodipodi:nodetypes="cccsccsccc"
         id="path12579"
         d="M 62,27 L 55,35 L 57,36 C 57,47.646686 47.646686,57 36,57 C 33.979841,57 32.513824,56.804105 30.5625,56.28125 L 27.96875,65.9375 C 30.638416,66.652835 33.236159,67 36,67 C 53.057314,67 67,53.057314 67,36 L 69,35 L 62,27 z"
         style="fill:url(#linearGradient12612);fill-opacity:1;fill-rule:nonzero;stroke:none;stroke-width:10;stroke-linecap:butt;stroke-linejoin:round;stroke-miterlimit:4;stroke-dasharray:none;stroke-dashoffset:0;stroke-opacity:1;filter:url(#filter12569)"
         clip-path="url(#clipPath11963)" />
      <path
         clip-path="url(#clipPath11963)"
         style="fill:url(#linearGradient12614);fill-opacity:1;fill-rule:nonzero;stroke:none;stroke-width:10;stroke-linecap:butt;stroke-linejoin:round;stroke-miterlimit:4;stroke-dasharray:none;stroke-dashoffset:0;stroke-opacity:1;filter:url(#filter12569)"
         d="M 62,27 L 55,35 L 57,36 C 57,47.646686 47.646686,57 36,57 C 33.979841,57 32.513824,56.804105 30.5625,56.28125 L 27.96875,65.9375 C 30.638416,66.652835 33.236159,67 36,67 C 53.057314,67 67,53.057314 67,36 L 69,35 L 62,27 z"
         id="path12583"
         sodipodi:nodetypes="cccsccsccc"
         transform="matrix(-0.5,0.8660254,-0.8660254,-0.5,85.022242,22.672724)" />
    </g>
  </g>
</svg>
